<svg xmlns="http://www.w3.org/2000/svg" viewBox="0 0 250 185.09"><defs><style>.cls-1{fill:#fc9425;}</style></defs><title>GraphicLogo</title><g id="Layer_2" data-name="Layer 2"><g id="Layer_1-2" data-name="Layer 1"><path class="cls-1" d="M59,23.42A3,3,0,0,1,58.22,26a2.91,2.91,0,0,0-.47,1.15c0,.08.12.24.22.31s.19,0,.28-.08a.78.78,0,0,0,.16-.14c.77-.7.78-.72,1.68-.24.47.25.9.55,1.35.83a5,5,0,0,0,2.24.88,4.89,4.89,0,0,1,1.33.56,6.94,6.94,0,0,0,1.55.63c1,.15,2,.14,2.95.24a4.51,4.51,0,0,1,1.64.32,5.5,5.5,0,0,0,4.52.09c.56-.18,1.08-.51,1.63-.74a16.1,16.1,0,0,1,2.45-1,11.43,11.43,0,0,0,5.26-3c.68-.64.71-.62,1.24.09Q91,32.27,95.7,38.65c2.34,3.18,4.66,6.39,7,9.58.44.6.43.58-.23,1s-1.49.94-2.23,1.41c-.09.06-.21.1-.26.18-.16.26-.45.58-.39.8s.46.45.73.49a7.8,7.8,0,0,0,1.47,0c.74,0,1.48-.1,2.22-.11.18,0,.47.12.51.24a.68.68,0,0,1-.22.54,8,8,0,0,1-1.15.93,27.28,27.28,0,0,0-6.35,6,22.09,22.09,0,0,0-2.33,3.66c-.78,1.48-1.86,2.75-2.75,4.14a13.3,13.3,0,0,0-.78,1.38c-.08.16,0,.38,0,.58a2.71,2.71,0,0,0,.59,0,2,2,0,0,0,.57-.29,14.54,14.54,0,0,1,3.75-1.71c1.3-.45,2.57-1,3.86-1.45a4.14,4.14,0,0,1,.5-.12c0,.2.15.45.07.59a13.46,13.46,0,0,1-1.46,2.19,9.13,9.13,0,0,0-1.91,2.89,22,22,0,0,1-1.17,2c-.61,1.19-1.17,2.41-1.76,3.61-.25.51-.52,1-.8,1.49A43.08,43.08,0,0,0,90,86.71c-.74,2.21-1.43,4.43-2.16,6.64-.25.77-.27.78-1,.53l-7.61-2.61L68.69,87.69c-3.54-1.21-7.07-2.45-10.6-3.66-2.9-1-5.82-1.95-8.72-2.94-2.17-.74-4.33-1.52-6.5-2.27-2-.69-4-1.34-6-2l-9.51-3.29-4.61-1.56a2.32,2.32,0,0,1-1.43-.83c-.2-.33-.5-.13-.76-.08s-.6-.11-.61-.51a8.78,8.78,0,0,0,0-1.16c-.08-.49-.29-.6-.82-.52-.77.11-.73.11-.85-.62a8,8,0,0,1,.16-3.45,3,3,0,0,0,0-1.36,7.19,7.19,0,0,1,.58-4.74,3.37,3.37,0,0,1,.76-1.13,1,1,0,0,0,.35-1.21,2.14,2.14,0,0,1,0-1.34,20.43,20.43,0,0,0,.26-2.09,3.14,3.14,0,0,1,.12-1c.25-.48.48-.87-.13-1.25-.07,0-.06-.33,0-.47a6.8,6.8,0,0,1,.53-1,4.54,4.54,0,0,0,1-2.72c0-.14.23-.42.34-.41.42,0,.5-.23.46-.53a2.62,2.62,0,0,0-.29-1.2,1.63,1.63,0,0,1,.24-2.57,2.27,2.27,0,0,0,.25-.34c.2-.25.29-.52,0-.71s-.34-.48-.37-.81c-.09-.76-.16-.85-1-1-.4-.07-.52-.19-.27-.54a11.6,11.6,0,0,1,.72-.91c.33-.37.71-.69,1-1.06a1.2,1.2,0,0,0,.1-1.87,5.59,5.59,0,0,1-.53-.78,2.39,2.39,0,0,1-.27-.9c0-.44-.21-1,.3-1.25s.74.25,1.06.5a2.12,2.12,0,0,0,.25.2c.24.13.56.41.72.34a2.94,2.94,0,0,0,.87-.73s0-.3-.09-.36a1.92,1.92,0,0,1-.79-1.84c0-.59-.37-.85-.89-1-1.07-.39-1.22-.64-1-1.72.19-.79.46-1.56.72-2.32a1.5,1.5,0,0,1,1.33-1.19.83.83,0,0,0,.47-.21.57.57,0,0,0,0-.85.46.46,0,0,0-.74,0c-.1.1-.17.23-.28.32-.37.3-.65.28-.83-.17A7.29,7.29,0,0,1,22.8,18c.22-1,.39-1.93.52-2.91a3.57,3.57,0,0,0-.5-2.34c-.43-.74-.34-1,.35-1.5.28-.21.59-.39.87-.61a1.85,1.85,0,0,0,.73-1.88A24.92,24.92,0,0,0,23.06,2.2a1.41,1.41,0,0,1-.15-.5c0-.45.28-.68.67-.46a2.88,2.88,0,0,1,.76.57,4.19,4.19,0,0,0,2,1.32A2.81,2.81,0,0,1,28.1,4.84c.06.14.23.23.35.34l.19-.44s0-.07,0-.11c.16-1,.16-1-.7-1.4-.5-.24-1.13-.4-1-1.16s.76-.8,1.28-1a1.6,1.6,0,0,1,1.58.37c.18.17.36.34.53.52a2.89,2.89,0,0,0,4.34-.46c.17-.27.34-.54.53-.79A1.58,1.58,0,0,1,37.36.23a4,4,0,0,1,1.19,1,12.08,12.08,0,0,0,2.22,2.39,4.36,4.36,0,0,0,4.42.48c.33-.13.63-.32,1-.47A3,3,0,0,1,50,4.32a10.51,10.51,0,0,0,3.83,2.39,2.62,2.62,0,0,1,1.49,1.54c.09.23.15.47.24.7a7.48,7.48,0,0,0,1.34,2.5c1.28,1.44,1.33,3.24,1.13,5-.07.59-.66,1.13-1,1.68-.22.32-.49.6-.72.91a.3.3,0,0,0,0,.29.61.61,0,0,0,.37.12c.09,0,.19-.09.28-.14,1-.54,1.67-.2,1.79.95S58.91,22.37,59,23.42Z"/><path class="cls-1" d="M3.15,167.71c0-.74,0-1.49,0-2.23a1,1,0,0,1,.67-1.18,1.11,1.11,0,0,0,.43-.29.42.42,0,0,0,.06-.37c0-.07-.23-.12-.34-.1a6.73,6.73,0,0,0-.74.25,4.37,4.37,0,0,1,0-1c.28-1,.64-2,.93-3a13.91,13.91,0,0,0,.15-4.94,1.85,1.85,0,0,0-1-1.56,1.56,1.56,0,0,1-.69-1.13c-.18-.75-.37-1.51-1.3-1.78-.47-.13-.48-.65-.53-1.07-.08-.66-.13-1.33-.25-2a2.52,2.52,0,0,0-.41-1,.81.81,0,0,1,0-1.06A27.07,27.07,0,0,0,4.46,134,16.37,16.37,0,0,1,5.7,129.6,2.82,2.82,0,0,0,5.81,127a2.17,2.17,0,0,1,1.62-2.81c.31,0,.32.14.26.4A10.53,10.53,0,0,0,7.42,126a.75.75,0,0,0,.24.55c.24.21.6.22.72-.09A7.29,7.29,0,0,0,8.69,125a.45.45,0,0,0-.12-.38c-.73-.41-.3-.81,0-1.17a23,23,0,0,1,1.64-1.8c.57-.54.83-.4,1,.37a4.45,4.45,0,0,0,.46,1.16.5.5,0,0,0,.74.16c.28-.19.26-.45.11-.74-.24-.47-.44-1-.67-1.43a1.57,1.57,0,0,1-.18-1.22,1.18,1.18,0,0,0-.06-.46c-.17,0-.39,0-.5.1-.64.6-1.28,1.2-1.87,1.84a11.23,11.23,0,0,0-.75,1.15c-.06.09-.23.1-.35.15,0-.13-.07-.28,0-.38a8.74,8.74,0,0,1,.54-1.14,31.66,31.66,0,0,0,3-7.31,16.65,16.65,0,0,0,.48-2.06,4.33,4.33,0,0,1,1-1.95c.32-.41.6-1.06,1-1.15s.94.38,1.42.58a8.41,8.41,0,0,0,3.91.76,2,2,0,0,0,.47-.16c-.09-.17-.14-.41-.28-.5a1.27,1.27,0,0,0-.69-.19,6.74,6.74,0,0,1-4.25-1.65c-.81-.59-1.21-.52-1.58.37l-.39.92a6.83,6.83,0,0,1,0-1.09c.22-1.07.51-2.13.7-3.2.23-1.25.39-2.5.59-3.76.1-.59.22-1.18.33-1.76s.22-1.17.32-1.76c0-.14,0-.33,0-.42A2.29,2.29,0,0,0,15.1,95c-.07-.64.14-.78.82-.67l9.81,1.54,8.35,1.29c2.71.42,5.43.85,8.14,1.25,3.1.46,6.2.89,9.3,1.35,1.85.27,3.69.57,5.53.86.54.09.65.24.58.79-.26,1.88-.63,3.76-.74,5.65-.13,2.29-.07,4.59,0,6.89a10.94,10.94,0,0,0,.38,1.86.8.8,0,0,1-.07.3,1.15,1.15,0,0,1-.3-.22,4.87,4.87,0,0,0-.37-.64c-.15-.16-.42-.37-.59-.33a.73.73,0,0,0-.44.52,8,8,0,0,0-.08,2.2,35.84,35.84,0,0,0,1,3.79c.74,2.54,1.57,5,2.27,7.6.52,1.9.93,3.84,1.28,5.77A9.63,9.63,0,0,1,60,137.4c-.12,1.25-.81,1.73-2,1.79a6,6,0,0,1-3.26-1.09A8.81,8.81,0,0,0,51.82,137c-.14,0-.29-.11-.41-.08a8.5,8.5,0,0,0-.86.31,3.39,3.39,0,0,0,.5.6c2.19,1.67,4.41,3.29,6.58,5,1.11.87,2.12,1.86,3.16,2.81a8.2,8.2,0,0,1,.53.66c.44.5.88,1,1.34,1.47s.71.59,1,.94a1.23,1.23,0,0,1,0,1.81c-.24.3-.54.56-.81.83a4.87,4.87,0,0,0-.58.61,2.9,2.9,0,0,0-.25.65,3.13,3.13,0,0,0,.66.12c.31,0,.62-.1.94-.13a6.1,6.1,0,0,1,3.47.76,10.87,10.87,0,0,1,3,2.16,5.76,5.76,0,0,1,.59.74c.36.55.36.56-.18.87-.76.44-1.52.9-2.29,1.33l-8,4.49C58.08,164,56,165.21,54,166.38L47,170.27l-15.23,8.57q-3.73,2.11-7.45,4.24a2.82,2.82,0,0,1-2,.35,7.47,7.47,0,0,0-1.15-.12c-2.68-.09-5.36-.16-8-.26-1,0-2-.09-3.06-.21a2,2,0,0,1-1-.42c-.61-.53-1.16-1.14-1.72-1.72s-1.12-1.17-1.66-1.78a2.13,2.13,0,0,1-.54-.85,8.74,8.74,0,0,1-.22-2,4.69,4.69,0,0,0-.55-2.46A10,10,0,0,1,3.15,167.71Z"/><path class="cls-1" d="M111.54,26.17c.49.15.88.27,1.28.38a4.24,4.24,0,0,0,.82.16c.46,0,.92,0,1.38,0a4.74,4.74,0,0,0,3-.83c1.5-.92,3-1.84,4.52-2.75.15-.09.32-.16.47-.25a2.54,2.54,0,0,1,3.29.4,4.89,4.89,0,0,0,2.19,1.24,5.48,5.48,0,0,0,1.66.25A15,15,0,0,0,136.72,23a3,3,0,0,0,.52-.37c2.72-2.46,6.05-3.53,9.55-4.17,1.69-.31,3.42-.42,5.13-.67a2.26,2.26,0,0,0,1.78-1.18c.8-1.45,1.45-1.65,3-1.41a7.23,7.23,0,0,0,2.51-.09,26,26,0,0,1,6.05-.89,3.89,3.89,0,0,1,.84.05,6.26,6.26,0,0,0,4.13-.52,6,6,0,0,0,1.4-1.08c.29-.25.53-.57.8-.85a1.91,1.91,0,0,1,1.42-.6c3.32-.06,6.64-.14,10-.2l12.29-.23q5.24-.1,10.49-.22c2.26-.05,4.52-.14,6.77-.2h.85c.27,0,.42.1.22.38l-.81,1.11c-2.12,2.95-4.27,5.88-6.37,8.85-2.59,3.66-5.14,7.34-7.72,11-1.95,2.77-3.92,5.52-5.86,8.3-2.24,3.21-4.46,6.44-6.7,9.66-1.65,2.37-3.33,4.73-5,7.11-1.93,2.79-3.84,5.59-5.75,8.38-.42.61-.85,1.21-1.28,1.82s-.45.62-1.19.37c-1.74-.57-3.47-1.19-5.25-1.66a37.3,37.3,0,0,0-8.78-1.24,15.79,15.79,0,0,0-2.1-.14c-2,.24-4,.15-6,.5a62.7,62.7,0,0,0-6.41,1.34,42.25,42.25,0,0,0-6.14,2.29,39,39,0,0,0-6.19,3.45c-.44.31-.55,0-.7-.28l-3.49-6.78-5.64-10.92c-.15-.28-.26-.58-.39-.87-.34-.71-.37-.76.34-1.14,1.37-.74,2.75-1.43,4.15-2.1s2.57-1.17,3.86-1.73c.87-.38,1.76-.73,2.64-1.09a.84.84,0,0,1,.41-.07,4.19,4.19,0,0,0,2.39-.68c2-.89,3.95-1.7,5.92-2.55a2.69,2.69,0,0,0,.42-.28c-.15-.11-.29-.29-.46-.33a10.71,10.71,0,0,0-2.29-.39,6.61,6.61,0,0,0-2.47.43c-1.19.51-2.29,1.24-3.45,1.84a13.22,13.22,0,0,1-1.56.63c-.08,0-.19-.05-.29-.08s.05-.22.12-.28A14.9,14.9,0,0,1,134,43.83c1.25-.85,2.56-1.63,3.83-2.45.35-.22.82-.43.6-1a.94.94,0,0,0-1.15-.54,9.08,9.08,0,0,0-1.9.62,17.89,17.89,0,0,1-5.8,1.53,17.33,17.33,0,0,1-3.37,0,12.3,12.3,0,0,0-4.18.51c-1.22.33-2.48.48-3.73.7a.86.86,0,0,1-1-.56c-1-2-2-4-3-5.95s-1.91-3.71-2.87-5.56c-.6-1.16-1.22-2.31-1.8-3.47-.28-.56-.24-.73.34-1A12.67,12.67,0,0,1,111.54,26.17Z"/><path class="cls-1" d="M104.39,185c-3.68,0-7.35,0-11,0s-7.13-.14-10.7-.2l-12.29-.22-11.54-.22c-3.18-.06-6.35-.12-9.53-.21-1,0-2-.11-3.06-.18a1,1,0,0,1-.2-.05c0-.08.07-.18.13-.22l5.47-3.81L68.79,168c1.74-1.21,3.48-2.41,5.2-3.65.37-.27.53-.19.72.16.36.64.75,1.28,1.13,1.91a3.72,3.72,0,0,0,.36.52c.51.59.76.59,1.29.06l.71-.72c.21.28.44.54.62.84a6,6,0,0,0,1.92,1.63c.09.06.25,0,.38,0s0-.3-.05-.39A8.1,8.1,0,0,0,79.95,167a6.7,6.7,0,0,1-2-2.54,8.84,8.84,0,0,0-.9-1.55c-.24-.35-.17-.55.16-.78.94-.63,1.86-1.28,2.79-1.92,3-2.08,6-4.17,8.94-6.24l12.45-8.6,15.4-10.68c.58-.4,1.15-.82,1.72-1.23s.62-.44,1.09.23c1,1.38,1.94,2.78,3,4.11a41.88,41.88,0,0,0,5.56,5.8,47.53,47.53,0,0,0,6.76,4.91c.38.23.44.42.22.84-1.1,2.12-2.17,4.27-3.24,6.41-1.18,2.36-2.35,4.73-3.52,7.09-.61,1.23-1.25,2.45-1.86,3.68-.32.65-.31.65-1,.42a1.81,1.81,0,0,0-.38,0,2,2,0,0,0,.22.33c.51.53.52.53.17,1.23-2.62,5.24-5.25,10.47-7.85,15.73a1.31,1.31,0,0,1-1.38.86c-4,0-7.92,0-11.88,0Zm18.76-18.85.36-.17a1.81,1.81,0,0,0-.24-.33,4.09,4.09,0,0,0-.44-.29l-2.55-1.7-8.91-6.07a6.07,6.07,0,0,0-.84-.45c-.08,0-.19,0-.28,0a1.36,1.36,0,0,0,.14.26c.11.13.25.25.37.38,1.5,1.44,3.05,2.83,4.49,4.33s3.47,2.22,5.15,3.4a1.93,1.93,0,0,0,.7.24C121.76,165.87,122.42,166,123.15,166.12Z"/><path class="cls-1" d="M85.89,106c-.08.84-.13,1.69-.25,2.53a23.14,23.14,0,0,0,.12,6.54c.47,3.31.91,6.63,1.43,9.93a31.57,31.57,0,0,0,.88,3.37.87.87,0,0,0,.23.35.89.89,0,0,0,.27.13c0-.09.11-.2.1-.28-.09-.7-.24-1.39-.3-2.09a13.84,13.84,0,0,1,0-1.89c.1-2,.39-3.94-.41-5.85a2,2,0,0,1,.15-1.74,1.36,1.36,0,0,1,1.61-.7c.33.09.4.33.47.63.17.76.35,1.51.58,2.25a2.52,2.52,0,0,0,.49.79.41.41,0,0,0,.38.06c.08,0,.12-.23.11-.34a1.9,1.9,0,0,0-.18-.61,5.44,5.44,0,0,1-.55-3,17.47,17.47,0,0,0-.46-4.94,8.56,8.56,0,0,1,.36-4.68c.15-.45.36-.64.84-.56,1.46.25,2.92.49,4.38.71l6.48,1,7.2,1.13c.76.12,1.53.26,2.3.35.4,0,.56.24.54.62s0,.49,0,.74a40.47,40.47,0,0,0,.77,7.45,42.1,42.1,0,0,0,2,7.24c.6,1.58,1.33,3.12,2,4.67.33.74.34.76-.35,1.15l-8.77,4.92-11,6.2c-2.09,1.18-4.2,2.33-6.29,3.5l-9.13,5.16c-2.83,1.59-5.68,3.16-8.5,4.76-.38.21-.56.18-.73-.2a28.56,28.56,0,0,1-2-4.33A5.36,5.36,0,0,0,70,149.5a19.87,19.87,0,0,1-1.87-3.91c-.74-2.05-1.49-4.1-2.24-6.15a1.24,1.24,0,0,1-.1-.3c-.11-1.27-.73-2.42-.92-3.65-.24-1.57-.87-3-1.19-4.56-.19-.93-.3-1.87-.45-2.81a2,2,0,0,0-.15-.61,1.73,1.73,0,0,1-.15-1.32,2.16,2.16,0,0,0-.09-.93,10.73,10.73,0,0,1-.48-3.13.68.68,0,0,0,0-.31,8.59,8.59,0,0,1-.35-3.66,13,13,0,0,0-.37-3.67,4.41,4.41,0,0,1-.08-1.16c0-2.65,0-5.3,0-8,0-1.09.13-2.18.23-3.27.06-.61.24-.74.83-.64,2.89.45,5.77.93,8.66,1.37,2.19.33,4.39.61,6.59.94,1.92.29,3.82.61,5.74.92.49.08,1,.12,1.46.22C85.92,105.09,85.92,105.11,85.89,106Z"/><path class="cls-1" d="M211.95,66.48c-.48-.09-1-.18-1.45-.25a1.8,1.8,0,0,0-.73,0,.57.57,0,0,0-.3,1c.67.86,1.42,1.67,2,2.58,1.26,1.91,2.47,3.86,3.67,5.81.65,1.05,1.26,2.12,1.85,3.21.37.68.68,1.39,1,2.09s.65,1.47,1,2.21c.07.16.18.3.25.47a1.06,1.06,0,0,1-.53,1.51c-1.43.84-2.88,1.66-4.31,2.48-2.66,1.53-5.32,3.07-8,4.59-1.63.93-3.27,1.82-4.91,2.73-.78.43-.84.4-1.17-.45s-.78-2-1.17-2.95A40.87,40.87,0,0,0,195,84a43.23,43.23,0,0,0-5.7-6.81c-1.11-1.08-2.3-2.09-3.51-3.05-.56-.45-.44-.53-.1-.86l5.56-5.38.6-.6q5-5,10.08-10,6.07-6,12.18-12l10.07-9.87L235.51,24.3q3.3-3.22,6.61-6.43c.57-.55.6-.57,1.18,0a3.52,3.52,0,0,0,1.7.8c.27.07.56.09.83.16,1.18.33,1.74.89,1.72,2.1a4.23,4.23,0,0,0,1.59,3.42,4.14,4.14,0,0,1,.51.54,1.39,1.39,0,0,1,.07,1.75,2.13,2.13,0,0,1-.46.58c-1.43,1-1.68,2.55-1.85,4.1a3.36,3.36,0,0,1-.61,1.86,14.9,14.9,0,0,0-.9,1.77c-.33.58-.72,1.13-1.1,1.68a3.31,3.31,0,0,0-.62,2.3,3.58,3.58,0,0,1-.55,2.41,4,4,0,0,0-.5,2,6.38,6.38,0,0,1-1.32,4.14,2.35,2.35,0,0,0-.42,1.06,3.82,3.82,0,0,1-1.27,2.26,2,2,0,0,0-.49.55,2,2,0,0,0-.3,1c.06.46.48.94.42,1.35a2.3,2.3,0,0,0,0,1.32,2.13,2.13,0,0,1-.09,1.94c-.68,1.15-1.4,2.27-2.09,3.42a2.45,2.45,0,0,0-.38.94.91.91,0,0,1-.63.86c-.65.26-1.28.59-1.91.92a3,3,0,0,0-1.59,2c-.69,2.44-1.49,4.85-2.27,7.27a3.4,3.4,0,0,1-.49.93c-.51.71-1.08,1.37-1.57,2.09a.93.93,0,0,0-.09.76,4,4,0,0,1-.25,3.17,1,1,0,0,1-.4.46c-1.13.66-2.26,1.31-3.41,1.93-.56.3-.61.25-.81-.34-.76-2.24-1.52-4.48-2.31-6.7-.26-.73-.66-1.41-.9-2.15-.44-1.34-.82-2.69-1.2-4.05-.2-.74-.38-1.49-.52-2.24-.4-2.09-.48-4.28-1.65-6.17-.32-.51-.63-1-1-1.52-.47-.7-1-1.37-1.42-2.1a3.81,3.81,0,0,0-1.36-1.3.7.7,0,0,0-.88,0c-.33.23-.28.53-.15.85.48,1.18,1,2.34,1.42,3.54a8.68,8.68,0,0,1,.8,3.91,5.64,5.64,0,0,1-.24,1.24C214,66.09,213.42,66.5,211.95,66.48Z"/><path class="cls-1" d="M159.54,185h-12c-1.19,0-1.22,0-1.15-1.15.06-.95.19-1.89.29-2.84,0-.35.09-.7.11-1.05,0-1.16.05-1.24,1.22-1.07,1.64.23,3.32.05,4.93.53a5.28,5.28,0,0,0,1.48.09c2.33,0,4.67,0,7,0a56.71,56.71,0,0,0,8.2-.77,29.84,29.84,0,0,1,3.79-.28c1.59,0,3.18,0,4.77,0s3,.16,4.44.15a11.33,11.33,0,0,0,2-.33,8.42,8.42,0,0,1,1.54-.28c1.3,0,2.61.08,3.91.18a3.91,3.91,0,0,0,3.9-1.76c1.15-1.68,2.57-3.18,3.85-4.77,1-1.29,2.07-2.59,3.11-3.88.84-1,1.68-2.09,2.58-3.08a18.37,18.37,0,0,1,1.66-1.47,13.56,13.56,0,0,0,2.78-3.59c.88-1.53,1.67-3.11,2.56-4.64.78-1.34,1.63-2.64,2.43-4a17.2,17.2,0,0,0,.87-1.58c.22-.46.47-.53.92-.31q2.37,1.19,4.76,2.33c3.28,1.56,6.54,3.18,9.86,4.63,2.45,1.07,5,1.91,7.52,2.85.95.35.94.34,1,1.35.07,2.33.14,4.66.21,7s.12,4.8.22,7.2.24,4.58.36,6.86c0,.21,0,.42,0,.64,0,.75-.09.83-.87.86-2.29.08-4.59.15-6.88.21-3.67.09-7.34.16-11,.25-2,.05-3.95.14-5.92.21l-6.24.2-8.15.22-6,.21-5.93.2-8.36.23c-2,.06-3.95.16-5.92.21-4.59.11-9.18.19-13.77.29Z"/><path class="cls-1" d="M162.17,176.29c-.64,0-1.27,0-1.91,0a7.47,7.47,0,0,1-2.8-.43,6.19,6.19,0,0,0-3.12-.27,13.77,13.77,0,0,1-6.19-.17c-.9-.26-1-.3-.83-1.22s.23-2,.32-3c.23-2.67.45-5.33.68-8,.2-2.28.42-4.56.63-6.84.06-.6.14-1.19.22-1.78.05-.4.3-.53.68-.48,1.43.18,2.86.38,4.29.54.7.08,1.41.08,2.11.09,1.06,0,2.12,0,3.18,0a42,42,0,0,0,7-.78,44.82,44.82,0,0,0,11.86-4.1,38.54,38.54,0,0,0,8.18-5.43c1.27-1.12,2.53-2.25,3.77-3.41.49-.46.88-1,1.34-1.5s.57-.58,1.27-.27c2.84,1.25,5.7,2.47,8.53,3.75,3.08,1.4,6.14,2.85,9.21,4.27l.29.14c.86.44.84.43.35,1.3a21.91,21.91,0,0,1-2.6,3.72A27.63,27.63,0,0,0,207,155c-1,1.39-2,2.74-3,4.1-.36.48-.8.9-1.15,1.38a15.72,15.72,0,0,1-3.56,3.28,4.92,4.92,0,0,0-1.07,1,3.4,3.4,0,0,1-1.6,1.15,8.21,8.21,0,0,0-1.5.77,37.73,37.73,0,0,1-7.74,4.1c-1.18.46-2.3,1.07-3.5,1.46-1.64.54-3.31,1-5,1.39-2.46.61-4.93,1.22-7.41,1.74-1.27.27-2.6.24-3.87.52A22.34,22.34,0,0,1,162.17,176.29Z"/><path class="cls-1" d="M94,89.57c-.2.22-.35.4-.52.57a.54.54,0,0,1-.18.08.57.57,0,0,1,0-.19,29,29,0,0,1,2-7c.7-1.65,1.42-3.3,2-5a8.9,8.9,0,0,1,1.87-3c2.31-2.49,4.11-5.39,6.33-7.94,1.83-2.1,3.81-4.08,5.74-6.09.36-.38.49-.33.81.13,2.95,4.31,5.91,8.61,8.83,12.94,1,1.52,2,3.1,2.92,4.67.4.65.39.79-.15,1.4a42.58,42.58,0,0,0-6.41,9.68,38.93,38.93,0,0,0-3.33,9.46c-.2,1-.41,2-.61,3-.1.53-.16.59-.71.42-.77-.24-1.54-.51-2.31-.77-2.8-1-5.59-2-8.4-2.91s-5.55-1.87-8.32-2.81l-.7-.24A.62.62,0,0,1,92.4,95c.55-1.6,1.07-3.2,1.61-4.81a1.71,1.71,0,0,0,.12-.39C94.13,89.75,94,89.68,94,89.57Z"/></g></g></svg>