<svg xmlns="http://www.w3.org/2000/svg" viewBox="0 0 1722.51 413.65"><defs><style>.cls-1{fill:#fc9425;}.cls-2{fill:#be6109;}</style></defs><title>SunstoneFarmsLogo(horizontal)</title><g id="Layer_2" data-name="Layer 2"><g id="Layer_1-2" data-name="Layer 1"><path class="cls-1" d="M131.85,52.34A6.81,6.81,0,0,1,130.11,58a6.51,6.51,0,0,0-1.06,2.56c-.05.17.27.54.5.7s.42-.08.62-.18a1.75,1.75,0,0,0,.35-.32c1.73-1.57,1.75-1.6,3.76-.53,1,.55,2,1.24,3,1.87a11.18,11.18,0,0,0,5,2,10.92,10.92,0,0,1,3,1.24,15.52,15.52,0,0,0,3.46,1.4c2.17.34,4.4.32,6.59.54A10.09,10.09,0,0,1,159,68c3.38,1.8,6.73,1.3,10.1.21,1.26-.41,2.41-1.15,3.65-1.66a36,36,0,0,1,5.48-2.13A25.53,25.53,0,0,0,190,57.66c1.51-1.43,1.6-1.38,2.77.19q10.57,14.25,21.11,28.53c5.24,7.12,10.41,14.28,15.61,21.42,1,1.34,1,1.3-.5,2.18-1.68,1-3.33,2.1-5,3.16-.2.13-.46.22-.58.41-.36.59-1,1.3-.88,1.79s1,1,1.64,1.09a17.43,17.43,0,0,0,3.29,0c1.65-.07,3.3-.22,5-.24.4,0,1.06.26,1.13.53a1.52,1.52,0,0,1-.49,1.2,18,18,0,0,1-2.57,2.08c-5.6,3.58-10.05,8.4-14.18,13.49a49.37,49.37,0,0,0-5.21,8.17c-1.74,3.31-4.15,6.14-6.15,9.26a29.72,29.72,0,0,0-1.74,3.08c-.17.35,0,.86,0,1.3a6,6,0,0,0,1.32-.09,4.38,4.38,0,0,0,1.26-.64,32.49,32.49,0,0,1,8.38-3.81c2.9-1,5.74-2.16,8.62-3.24a9.26,9.26,0,0,1,1.12-.27c.07.44.34,1,.16,1.31a30.08,30.08,0,0,1-3.26,4.89,20.41,20.41,0,0,0-4.27,6.45c-.61,1.59-1.81,3-2.61,4.49-1.37,2.66-2.61,5.38-3.94,8.07-.56,1.13-1.16,2.24-1.79,3.33-3.26,5.66-5,11.92-7.07,18.05-1.65,4.93-3.2,9.9-4.82,14.84-.56,1.72-.61,1.74-2.27,1.18-5.67-1.93-11.34-3.89-17-5.83-7.84-2.68-15.68-5.33-23.52-8s-15.79-5.47-23.7-8.17c-6.49-2.22-13-4.35-19.5-6.57-4.85-1.66-9.67-3.4-14.52-5.07-4.48-1.54-9-3-13.46-4.54-7.09-2.43-14.16-4.91-21.25-7.35-3.43-1.18-6.87-2.32-10.3-3.49-1.18-.4-2.45-.66-3.19-1.86-.46-.73-1.11-.3-1.71-.19-.9.17-1.34-.25-1.37-1.14a19.63,19.63,0,0,0-.1-2.6c-.18-1.1-.65-1.34-1.82-1.16-1.73.26-1.63.24-1.91-1.39a18,18,0,0,1,.35-7.72,6.77,6.77,0,0,0,0-3,16.08,16.08,0,0,1,1.29-10.59,7.53,7.53,0,0,1,1.71-2.52,2.14,2.14,0,0,0,.78-2.69,4.79,4.79,0,0,1,0-3,45.65,45.65,0,0,0,.58-4.67,7,7,0,0,1,.27-2.32c.56-1.08,1.07-1.95-.29-2.8-.16-.1-.13-.74,0-1a15.19,15.19,0,0,1,1.18-2.32c1.19-1.87,2.44-3.7,2.3-6.09,0-.31.5-.93.76-.93.94,0,1.12-.51,1-1.19A5.85,5.85,0,0,0,50,98.84c-1.71-2.17-1.53-4,.53-5.75a5.07,5.07,0,0,0,.56-.76c.45-.57.64-1.17-.11-1.59s-.75-1.08-.84-1.81C50,87.25,49.81,87,48,86.73c-.89-.16-1.16-.44-.6-1.2a25.91,25.91,0,0,1,1.61-2c.74-.82,1.58-1.55,2.32-2.37,1.44-1.6,1.46-2.46.22-4.18a12.49,12.49,0,0,1-1.19-1.75,5.34,5.34,0,0,1-.61-2c0-1-.46-2.2.67-2.8s1.65.56,2.36,1.11a4.74,4.74,0,0,0,.56.44c.54.3,1.24.92,1.61.77a6.57,6.57,0,0,0,1.95-1.63c.11-.11,0-.68-.19-.79-1.53-1-1.8-2.47-1.78-4.12,0-1.32-.83-1.9-2-2.32C50.59,63,50.26,62.41,50.85,60c.43-1.76,1-3.48,1.61-5.19a3.36,3.36,0,0,1,3-2.66,1.86,1.86,0,0,0,1.05-.47,1.28,1.28,0,0,0,0-1.9,1,1,0,0,0-1.65-.06c-.23.21-.39.51-.63.71-.83.68-1.46.62-1.86-.38-1.26-3.17-2.25-6.39-1.43-9.9.5-2.14.86-4.32,1.15-6.5A8,8,0,0,0,51,28.42c-1-1.65-.75-2.23.78-3.36.64-.47,1.32-.87,1.94-1.36a4.14,4.14,0,0,0,1.62-4.2c-1-4.94-1.49-10-3.78-14.6a3.14,3.14,0,0,1-.33-1.12c-.08-1,.63-1.51,1.49-1A6.43,6.43,0,0,1,54.4,4,9.35,9.35,0,0,0,58.88,7a6.27,6.27,0,0,1,3.92,3.86c.14.31.51.51.77.76.14-.33.29-.65.43-1,0-.07,0-.16,0-.24.35-2.21.35-2.21-1.57-3.14-1.12-.54-2.53-.89-2.24-2.59.27-1.54,1.7-1.78,2.85-2.13a3.58,3.58,0,0,1,3.54.82c.41.37.81.75,1.19,1.15,2.79,2.95,7.84,1.89,9.71-1,.38-.6.75-1.21,1.19-1.77A3.53,3.53,0,0,1,83.49.51a9,9,0,0,1,2.66,2.25,27,27,0,0,0,5,5.35A9.74,9.74,0,0,0,101,9.19c.73-.29,1.41-.71,2.12-1,3.19-1.51,6.24-1.1,8.59,1.51s5.47,4,8.57,5.34a5.85,5.85,0,0,1,3.34,3.45c.19.52.35,1,.54,1.57a16.71,16.71,0,0,0,3,5.58c2.86,3.21,3,7.24,2.52,11.19-.15,1.32-1.46,2.53-2.3,3.75-.49.71-1.11,1.33-1.61,2a.66.66,0,0,0,.07.65,1.37,1.37,0,0,0,.82.26c.21,0,.42-.2.63-.31,2.26-1.2,3.73-.45,4,2.12C131.5,47.63,131.66,50,131.85,52.34Z"/><path class="cls-1" d="M7,374.8c0-1.66.05-3.32,0-5a2.32,2.32,0,0,1,1.5-2.64,2.48,2.48,0,0,0,1-.65.94.94,0,0,0,.14-.83c-.07-.16-.52-.27-.76-.22a15,15,0,0,0-1.65.55,9.77,9.77,0,0,1,.09-2.29c.63-2.28,1.43-4.5,2.07-6.77,1-3.64.62-7.37.34-11.05a4.14,4.14,0,0,0-2.18-3.48A3.49,3.49,0,0,1,6,339.92c-.4-1.67-.83-3.37-2.89-4-1-.3-1.08-1.45-1.19-2.4-.17-1.49-.29-3-.56-4.45A5.64,5.64,0,0,0,.43,327a1.81,1.81,0,0,1,0-2.36C5.69,317,8.52,308.45,10,299.38a36.58,36.58,0,0,1,2.77-9.75,6.3,6.3,0,0,0,.23-5.88c-1.2-2.39,1-5.9,3.63-6.27.69-.1.72.32.58.9a23.53,23.53,0,0,0-.61,3.21,1.68,1.68,0,0,0,.54,1.22c.53.47,1.34.49,1.61-.21a16.29,16.29,0,0,0,.71-3.21,1,1,0,0,0-.27-.85c-1.62-.92-.67-1.8,0-2.62a51.32,51.32,0,0,1,3.66-4c1.28-1.2,1.86-.9,2.29.84a9.94,9.94,0,0,0,1,2.6,1.12,1.12,0,0,0,1.66.36c.63-.44.59-1,.25-1.66-.54-1-1-2.14-1.5-3.2a3.51,3.51,0,0,1-.4-2.73,2.64,2.64,0,0,0-.13-1c-.38.07-.87,0-1.11.23-1.43,1.33-2.86,2.67-4.17,4.12A25.1,25.1,0,0,0,19.1,274c-.14.2-.52.22-.79.33,0-.29-.15-.62-.05-.85a19.53,19.53,0,0,1,1.22-2.55,70.75,70.75,0,0,0,6.78-16.33A37.21,37.21,0,0,0,27.32,250a9.67,9.67,0,0,1,2.27-4.35c.72-.92,1.34-2.37,2.23-2.57s2.09.85,3.18,1.29a18.8,18.8,0,0,0,8.75,1.69,4.45,4.45,0,0,0,1.05-.36c-.2-.39-.31-.92-.63-1.13a2.83,2.83,0,0,0-1.55-.43c-3.71.13-6.67-1.63-9.5-3.69-1.81-1.32-2.7-1.16-3.52.82-.29.68-.58,1.36-.87,2a15.27,15.27,0,0,1,.11-2.44c.48-2.39,1.13-4.75,1.57-7.15.51-2.78.87-5.6,1.32-8.39.21-1.32.49-2.63.74-3.94s.48-2.62.71-3.93c.05-.31-.07-.73.09-.93,1.07-1.33.68-2.77.51-4.26s.31-1.74,1.84-1.5l21.92,3.45q9.33,1.45,18.67,2.88c6.07.93,12.13,1.89,18.2,2.79,6.93,1,13.86,2,20.79,3,4.13.61,8.25,1.26,12.37,1.91,1.21.19,1.46.54,1.29,1.77-.57,4.21-1.41,8.4-1.65,12.63-.3,5.12-.16,10.27-.07,15.4a24.45,24.45,0,0,0,.84,4.15,1.78,1.78,0,0,1-.15.67,2.57,2.57,0,0,1-.67-.5,10.89,10.89,0,0,0-.83-1.43c-.35-.37-.94-.82-1.32-.74a1.62,1.62,0,0,0-1,1.16,17.93,17.93,0,0,0-.18,4.93,80.1,80.1,0,0,0,2.13,8.46c1.66,5.67,3.52,11.28,5.07,17,1.16,4.25,2.07,8.57,2.86,12.9a21.52,21.52,0,0,1,.13,5.9c-.27,2.79-1.8,3.87-4.58,4s-5-1.17-7.28-2.44a19.68,19.68,0,0,0-6.32-2.57c-.31-.05-.65-.25-.92-.18a19,19,0,0,0-1.92.7,7.57,7.57,0,0,0,1.11,1.34c4.89,3.72,9.86,7.35,14.7,11.14,2.48,1.94,4.74,4.16,7.07,6.29a18.32,18.32,0,0,1,1.18,1.47c1,1.11,2,2.21,3,3.28.71.73,1.58,1.33,2.23,2.11,1.19,1.42,1.16,2.6,0,4.05-.55.67-1.21,1.25-1.82,1.87a10.89,10.89,0,0,0-1.3,1.37,6.47,6.47,0,0,0-.56,1.45,7,7,0,0,0,1.49.26c.7,0,1.39-.22,2.1-.29a13.64,13.64,0,0,1,7.75,1.69,24.3,24.3,0,0,1,6.69,4.82,12.88,12.88,0,0,1,1.33,1.65c.81,1.22.8,1.24-.4,1.94-1.7,1-3.4,2-5.12,3-6,3.35-12,6.67-18,10-4.61,2.58-9.19,5.21-13.79,7.8l-15.47,8.71q-17,9.58-34,19.16-8.35,4.71-16.65,9.49a6.3,6.3,0,0,1-4.54.78,16.7,16.7,0,0,0-2.58-.26c-6-.2-12-.37-18-.58-2.28-.08-4.57-.21-6.84-.46a4.51,4.51,0,0,1-2.34-.93c-1.37-1.18-2.59-2.54-3.85-3.85s-2.51-2.61-3.71-4A4.75,4.75,0,0,1,11.41,398a19.54,19.54,0,0,1-.49-4.45,10.48,10.48,0,0,0-1.23-5.49A22.39,22.39,0,0,1,7,374.8Z"/><path class="cls-1" d="M249.27,58.48c1.09.33,2,.61,2.86.85a9.47,9.47,0,0,0,1.83.37c1,.06,2.06,0,3.08,0a10.59,10.59,0,0,0,6.72-1.86c3.36-2.07,6.73-4.1,10.1-6.15.34-.2.71-.35,1-.55a5.68,5.68,0,0,1,7.36.89,10.93,10.93,0,0,0,4.89,2.77,12.25,12.25,0,0,0,3.71.55,33.56,33.56,0,0,0,14.67-4.05,6.81,6.81,0,0,0,1.15-.82c6.07-5.5,13.52-7.88,21.34-9.32,3.79-.69,7.65-.94,11.47-1.5a5.06,5.06,0,0,0,4-2.63c1.78-3.23,3.23-3.69,6.76-3.16a16.15,16.15,0,0,0,5.61-.19c4.48-.93,8.9-2.11,13.53-2a8.7,8.7,0,0,1,1.89.12,14,14,0,0,0,9.23-1.15,13.37,13.37,0,0,0,3.14-2.42c.65-.57,1.18-1.27,1.78-1.9a4.26,4.26,0,0,1,3.17-1.33c7.42-.13,14.83-.31,22.25-.46l27.47-.51q11.72-.23,23.44-.48c5-.12,10.09-.3,15.14-.45.63,0,1.26,0,1.9,0s.93.22.48.84l-1.8,2.49c-4.75,6.59-9.54,13.15-14.23,19.77-5.79,8.17-11.49,16.4-17.25,24.6-4.35,6.19-8.77,12.34-13.11,18.55-5,7.18-10,14.4-15,21.59-3.69,5.31-7.44,10.57-11.12,15.88-4.31,6.22-8.57,12.48-12.86,18.72-.94,1.36-1.9,2.71-2.86,4.07s-1,1.38-2.67.83c-3.89-1.28-7.76-2.66-11.72-3.7A83.35,83.35,0,0,0,357.06,144c-1.57,0-3.17-.51-4.7-.32-4.46.54-9,.34-13.42,1.12a140.13,140.13,0,0,0-14.33,3,94.43,94.43,0,0,0-13.73,5.11,87.21,87.21,0,0,0-13.82,7.71c-1,.69-1.22,0-1.56-.63q-3.9-7.57-7.8-15.14-6.3-12.2-12.61-24.4c-.33-.63-.57-1.3-.88-1.94-.75-1.58-.82-1.69.76-2.54,3.05-1.64,6.16-3.2,9.28-4.7,2.85-1.36,5.74-2.61,8.64-3.87,2-.85,3.93-1.64,5.9-2.44a1.88,1.88,0,0,1,.92-.16c2,.3,3.61-.74,5.34-1.53,4.37-2,8.83-3.79,13.24-5.69a6,6,0,0,0,.93-.62c-.34-.25-.65-.65-1-.73a23.93,23.93,0,0,0-5.11-.88,14.78,14.78,0,0,0-5.51,1c-2.67,1.13-5.12,2.77-7.7,4.12a29.54,29.54,0,0,1-3.49,1.4c-.17.06-.43-.11-.65-.18.09-.21.11-.48.26-.62a33.29,33.29,0,0,1,3.54-3.12c2.8-1.91,5.71-3.65,8.56-5.48.78-.5,1.83-1,1.34-2.16a2.11,2.11,0,0,0-2.58-1.21,20.29,20.29,0,0,0-4.24,1.38,40,40,0,0,1-13,3.42,38.73,38.73,0,0,1-7.53,0,27.49,27.49,0,0,0-9.34,1.13c-2.72.73-5.55,1.07-8.34,1.56a1.91,1.91,0,0,1-2.24-1.26c-2.2-4.45-4.47-8.87-6.74-13.3q-3.19-6.22-6.41-12.42c-1.34-2.59-2.72-5.16-4-7.76-.63-1.26-.53-1.64.75-2.24A28.31,28.31,0,0,1,249.27,58.48Z"/><path class="cls-1" d="M233.29,413.39c-8.22,0-16.43.06-24.65,0-8-.08-15.94-.3-23.91-.45l-27.46-.48-25.8-.49c-7.1-.14-14.2-.28-21.3-.46-2.28-.06-4.56-.25-6.84-.4a2.28,2.28,0,0,1-.45-.12c.1-.17.15-.39.3-.49q6.1-4.27,12.22-8.51l38.33-26.54c3.89-2.7,7.78-5.39,11.62-8.16.84-.6,1.18-.43,1.62.35.81,1.44,1.67,2.85,2.52,4.27a8.32,8.32,0,0,0,.81,1.16c1.14,1.31,1.71,1.33,2.89.13l1.6-1.6c.47.62,1,1.21,1.39,1.87,1,1.68,2.74,2.57,4.29,3.64.19.13.56,0,.84,0,0-.29,0-.66-.12-.86a18.11,18.11,0,0,0-2.52-3.07,15,15,0,0,1-4.51-5.67,19.76,19.76,0,0,0-2-3.47c-.54-.79-.39-1.24.35-1.73,2.09-1.41,4.16-2.86,6.22-4.3,6.66-4.64,13.3-9.31,20-13.94q13.9-9.64,27.83-19.23,17.22-11.92,34.41-23.86c1.3-.9,2.57-1.83,3.85-2.75s1.38-1,2.44.51c2.2,3.08,4.33,6.21,6.66,9.2a93.59,93.59,0,0,0,12.43,13,106.23,106.23,0,0,0,15.11,11c.86.52,1,.94.49,1.88-2.47,4.75-4.84,9.54-7.23,14.32-2.64,5.28-5.24,10.57-7.88,15.85-1.37,2.75-2.79,5.47-4.15,8.22-.72,1.44-.69,1.45-2.22.94a4,4,0,0,0-.85-.1,4.52,4.52,0,0,0,.49.74c1.15,1.17,1.17,1.17.38,2.75-5.86,11.71-11.74,23.41-17.55,35.14a2.92,2.92,0,0,1-3.08,1.91c-8.85-.08-17.7,0-26.55,0Zm41.93-42.12.81-.38a4,4,0,0,0-.54-.73,9.15,9.15,0,0,0-1-.66c-1.9-1.27-3.8-2.52-5.69-3.81q-10-6.78-19.92-13.56a13.57,13.57,0,0,0-1.88-1c-.17-.08-.42,0-.63,0a3,3,0,0,0,.32.58c.26.3.55.57.83.84,3.35,3.22,6.83,6.32,10,9.68s7.75,5,11.51,7.59a4.31,4.31,0,0,0,1.56.54C272.11,370.69,273.58,370.95,275.22,371.26Z"/><path class="cls-1" d="M192,236.9c-.18,1.88-.29,3.77-.55,5.64a51.7,51.7,0,0,0,.26,14.61c1.05,7.4,2,14.81,3.2,22.19a70.54,70.54,0,0,0,2,7.53,2,2,0,0,0,.52.78,2,2,0,0,0,.61.29c.08-.21.25-.44.23-.63-.21-1.56-.54-3.1-.67-4.67a30.94,30.94,0,0,1-.06-4.23c.22-4.4.87-8.8-.91-13.07a4.43,4.43,0,0,1,.34-3.89,3,3,0,0,1,3.59-1.56c.74.2.9.74,1,1.4.38,1.69.78,3.38,1.29,5a5.64,5.64,0,0,0,1.1,1.76.91.91,0,0,0,.85.13c.17-.08.28-.51.24-.76a4.26,4.26,0,0,0-.41-1.35,12.15,12.15,0,0,1-1.22-6.67,39,39,0,0,0-1-11,19.12,19.12,0,0,1,.8-10.47c.34-1,.81-1.43,1.87-1.25,3.26.55,6.52,1.09,9.79,1.59,4.82.74,9.65,1.42,14.48,2.16,5.37.82,10.73,1.68,16.1,2.52,1.71.27,3.41.57,5.13.77.9.1,1.24.53,1.21,1.38,0,.55,0,1.11,0,1.66a90.45,90.45,0,0,0,1.72,16.66,94.09,94.09,0,0,0,4.41,16.17c1.35,3.53,3,7,4.49,10.43.73,1.66.77,1.69-.78,2.57-6.53,3.68-13.08,7.33-19.61,11-8.18,4.61-16.34,9.24-24.52,13.85-4.68,2.63-9.39,5.2-14.06,7.83-6.81,3.83-13.59,7.7-20.4,11.52-6.33,3.56-12.68,7.06-19,10.64-.84.48-1.25.41-1.64-.44-1.47-3.22-3.46-6.2-4.39-9.68a12,12,0,0,0-1.48-3.2,44.4,44.4,0,0,1-4.17-8.73c-1.65-4.59-3.34-9.16-5-13.75a2.78,2.78,0,0,1-.23-.67c-.24-2.84-1.64-5.41-2.05-8.17-.53-3.52-1.94-6.76-2.66-10.2-.43-2.07-.67-4.19-1-6.28A4.37,4.37,0,0,0,141,285a3.86,3.86,0,0,1-.34-3,4.84,4.84,0,0,0-.2-2.08c-.51-2.31-1.26-4.57-1.08-7a1.53,1.53,0,0,0-.08-.7c-1.16-2.64-.81-5.43-.78-8.18a29,29,0,0,0-.83-8.2,9.85,9.85,0,0,1-.18-2.58c0-5.92-.07-11.85,0-17.77,0-2.43.28-4.87.51-7.3.13-1.36.54-1.65,1.86-1.44,6.45,1,12.89,2.08,19.35,3.07,4.9.75,9.82,1.36,14.72,2.09,4.28.64,8.55,1.37,12.82,2.06,1.09.17,2.19.26,3.27.48C192,234.87,192,234.9,192,236.9Z"/><path class="cls-1" d="M473.67,148.56c-1.08-.19-2.15-.41-3.24-.57a4,4,0,0,0-1.62,0,1.28,1.28,0,0,0-.67,2.17c1.49,1.93,3.16,3.73,4.5,5.76,2.82,4.27,5.51,8.63,8.2,13,1.45,2.35,2.81,4.75,4.14,7.17.83,1.52,1.53,3.1,2.25,4.68s1.45,3.3,2.18,4.94c.16.36.41.68.56,1a2.37,2.37,0,0,1-1.17,3.38c-3.2,1.87-6.43,3.7-9.64,5.55-6,3.42-11.89,6.86-17.86,10.25C457.64,208,454,210,450.3,212c-1.74,1-1.88.9-2.62-1q-1.29-3.3-2.62-6.59a91.35,91.35,0,0,0-9.3-16.72A96.61,96.61,0,0,0,423,172.49c-2.49-2.41-5.15-4.66-7.85-6.83-1.26-1-1-1.19-.22-1.93q6.22-6,12.42-12l1.35-1.33Q440,139.18,451.24,128q13.57-13.4,27.21-26.74Q489.7,90.21,501,79.2q12.69-12.44,25.38-24.88Q533.7,47.11,541.12,40c1.27-1.24,1.33-1.27,2.63,0a7.86,7.86,0,0,0,3.8,1.79c.61.15,1.25.19,1.85.36,2.63.73,3.88,2,3.84,4.68a9.46,9.46,0,0,0,3.56,7.64,9.26,9.26,0,0,1,1.14,1.2,3.11,3.11,0,0,1,.15,3.91,4.76,4.76,0,0,1-1,1.29c-3.2,2.24-3.76,5.7-4.13,9.16a7.51,7.51,0,0,1-1.35,4.15,33.29,33.29,0,0,0-2,4c-.74,1.3-1.6,2.53-2.46,3.75a7.4,7.4,0,0,0-1.39,5.13,8,8,0,0,1-1.23,5.39,9,9,0,0,0-1.11,4.52c-.08,3.41-.71,6.55-3,9.26a5.24,5.24,0,0,0-.95,2.37,8.54,8.54,0,0,1-2.83,5.05,4.45,4.45,0,0,0-1.1,1.23,4.37,4.37,0,0,0-.67,2.2c.13,1,1.08,2.09.93,3a5.13,5.13,0,0,0,.07,2.94,4.75,4.75,0,0,1-.21,4.34c-1.51,2.57-3.14,5.08-4.67,7.65a5.48,5.48,0,0,0-.84,2.1,2,2,0,0,1-1.4,1.93c-1.46.59-2.87,1.32-4.27,2.05a6.78,6.78,0,0,0-3.55,4.45c-1.55,5.45-3.34,10.84-5.07,16.24a7.61,7.61,0,0,1-1.1,2.07c-1.14,1.58-2.4,3.07-3.5,4.67a2.09,2.09,0,0,0-.2,1.71c1,2.49.34,4.79-.56,7.09a2.22,2.22,0,0,1-.9,1c-2.52,1.47-5.05,2.93-7.62,4.32-1.25.68-1.35.56-1.8-.75-1.7-5-3.39-10-5.15-15-.58-1.63-1.47-3.16-2-4.8-1-3-1.83-6-2.68-9.05-.46-1.65-.84-3.32-1.17-5-.9-4.67-1.07-9.57-3.68-13.79-.71-1.14-1.41-2.28-2.15-3.39-1.05-1.57-2.25-3.06-3.18-4.7a8.51,8.51,0,0,0-3-2.9,1.57,1.57,0,0,0-2,0c-.73.52-.63,1.19-.34,1.9,1.06,2.63,2.2,5.23,3.17,7.9s2.13,5.64,1.79,8.73a12.61,12.61,0,0,1-.53,2.77C478.17,147.69,477,148.62,473.67,148.56Z"/><path class="cls-1" d="M356.54,413.45H329.75c-2.65,0-2.72,0-2.56-2.57.13-2.12.43-4.23.65-6.34.08-.78.21-1.56.24-2.35.1-2.58.11-2.77,2.74-2.4,3.66.52,7.41.11,11,1.19a11.8,11.8,0,0,0,3.3.2c5.22,0,10.43,0,15.65,0a126.73,126.73,0,0,0,18.33-1.71,66.7,66.7,0,0,1,8.48-.62c3.55-.09,7.11,0,10.67,0,3.31.07,6.62.35,9.92.34a25.32,25.32,0,0,0,4.4-.74,18.81,18.81,0,0,1,3.44-.62c2.91,0,5.83.18,8.74.4,3.65.28,6.48-.67,8.72-3.93,2.58-3.75,5.73-7.11,8.61-10.65,2.33-2.88,4.62-5.8,7-8.67,1.89-2.32,3.75-4.67,5.76-6.89a41.06,41.06,0,0,1,3.72-3.28,30.31,30.31,0,0,0,6.2-8c2-3.42,3.74-7,5.71-10.37,1.73-3,3.64-5.9,5.44-8.87a38.44,38.44,0,0,0,1.94-3.52c.48-1,1-1.19,2-.68q5.29,2.66,10.64,5.2c7.33,3.48,14.61,7.1,22,10.34,5.49,2.39,11.19,4.28,16.8,6.37,2.12.79,2.11.77,2.17,3,.15,5.2.32,10.41.48,15.61.16,5.36.28,10.73.5,16.08.21,5.12.53,10.23.8,15.34,0,.47,0,.95,0,1.42,0,1.68-.21,1.86-1.95,1.92-5.13.17-10.25.35-15.38.47-8.21.2-16.41.35-24.62.56-4.41.11-8.83.31-13.24.47-4.65.16-9.3.32-14,.45-6.07.18-12.15.32-18.22.5-4.49.14-9,.32-13.48.47s-8.83.32-13.24.45c-6.23.18-12.46.32-18.69.5-4.41.13-8.82.36-13.24.46-10.26.24-20.52.44-30.78.65Z"/><path class="cls-1" d="M362.43,394c-1.42,0-2.85-.05-4.26,0a16.68,16.68,0,0,1-6.26-1,13.84,13.84,0,0,0-7-.6,30.78,30.78,0,0,1-13.82-.38c-2-.57-2.13-.66-1.85-2.73.3-2.26.52-4.53.71-6.8.52-6,1-11.92,1.52-17.88.45-5.1.93-10.19,1.41-15.28.13-1.33.31-2.66.49-4,.12-.88.68-1.19,1.51-1.08,3.2.41,6.39.86,9.6,1.2,1.56.17,3.15.19,4.73.21,2.37,0,4.74,0,7.11,0A94,94,0,0,0,372,344a100.16,100.16,0,0,0,26.52-9.16,86.14,86.14,0,0,0,18.27-12.14c2.83-2.51,5.66-5,8.42-7.61,1.09-1,2-2.26,3-3.34,1.25-1.32,1.28-1.29,2.83-.61,6.36,2.79,12.74,5.52,19.06,8.38,6.89,3.12,13.73,6.36,20.59,9.55l.64.3c1.93,1,1.89,1,.78,2.92a49,49,0,0,1-5.82,8.31c-1.49,1.69-2.38,3.89-3.68,5.77-2.16,3.1-4.42,6.13-6.68,9.16-.8,1.07-1.79,2-2.56,3.09-2.13,3-5.07,5.14-8,7.34a11,11,0,0,0-2.39,2.26,7.61,7.61,0,0,1-3.58,2.58,18.35,18.35,0,0,0-3.35,1.71,84.33,84.33,0,0,1-17.31,9.17c-2.64,1-5.15,2.39-7.82,3.27-3.66,1.2-7.4,2.17-11.13,3.1-5.5,1.37-11,2.73-16.56,3.89-2.84.59-5.82.53-8.64,1.16A49.93,49.93,0,0,1,362.43,394Z"/><path class="cls-1" d="M210,200.18c-.44.48-.79.89-1.17,1.28a1.21,1.21,0,0,1-.4.18,1.26,1.26,0,0,1-.09-.43,64.77,64.77,0,0,1,4.46-15.61c1.57-3.69,3.18-7.38,4.54-11.15a19.89,19.89,0,0,1,4.18-6.82c5.16-5.57,9.19-12,14.15-17.74,4.09-4.7,8.51-9.11,12.82-13.61.81-.85,1.1-.75,1.81.29,6.59,9.63,13.21,19.25,19.74,28.92,2.29,3.4,4.38,6.94,6.54,10.43.9,1.46.88,1.76-.33,3.12a95.16,95.16,0,0,0-14.34,21.63,87,87,0,0,0-7.44,21.14c-.44,2.24-.92,4.47-1.36,6.7-.23,1.19-.35,1.31-1.58.93-1.73-.53-3.44-1.13-5.15-1.73-6.26-2.17-12.5-4.36-18.77-6.5S215.2,217,209,214.94l-1.56-.54a1.39,1.39,0,0,1-.94-2c1.22-3.57,2.4-7.16,3.59-10.74a3.82,3.82,0,0,0,.28-.88C210.38,200.59,210.16,200.41,210,200.18Z"/><path class="cls-2" d="M708.61,286.44c0,19.07.06,38.14,0,57.21-.05,12.93-1.52,25.68-5.75,38-2.47,7.18-5.89,13.83-11.41,19.22-6.25,6.11-13.69,9.49-22.49,9.53-11.88.05-23.75-.07-35.63,0-13.51.13-23.3-6.14-30.21-17.34-4.8-7.79-7.34-16.45-9-25.39a159.46,159.46,0,0,1-2.19-29.94c.09-16.39,0-32.78,0-49.18a33.28,33.28,0,0,1,.15-4.51c.46-3.33,2.28-5.11,5.68-5.14,9.37-.1,18.73-.11,28.1,0,3.55,0,5,1.68,5.44,5.27a41.77,41.77,0,0,1,.11,4.51c0,11.71-.16,23.42.08,35.13a53.17,53.17,0,0,0,1.83,12.83c1.65,6,5.17,8.31,11.49,8.39q6,.07,12,0c4.86-.08,8.36-2.36,9.93-7a25.35,25.35,0,0,0,1.64-7.78c.15-22.58.07-45.16.2-67.74,0-2.91-1.53-4.2-3.64-5.38q-10.3-5.73-20.6-11.44c-14.45-8.06-28.86-16.2-43.35-24.18-5.9-3.24-8.32-8.41-9-14.71a53.81,53.81,0,0,1-.13-5.51q0-59.21,0-118.43A133.93,133.93,0,0,1,596,48.16a58.34,58.34,0,0,1,9.69-20.76c6.72-8.82,15.58-13.5,26.64-13.66,11.71-.18,23.42-.09,35.13,0,13.17.05,23.08,6,29.86,17.11,6.23,10.17,9,21.5,10.2,33.27,2.24,22.52.6,45.12,1.09,67.67.05,2.51.11,5,0,7.53-.29,5-2.16,6.74-7.26,6.77q-12.54.06-25.09,0c-4.57,0-6.42-1.48-7.28-5.87a28.89,28.89,0,0,1-.35-5.49c0-12.71.06-25.43-.09-38.14a34.22,34.22,0,0,0-1.35-9.35c-1.61-5.34-5.24-7.87-10.82-8q-6-.17-12,0c-5.66.16-9.59,3-11,8.54A53.85,53.85,0,0,0,631.51,100c-.18,20.57,0,41.15-.15,61.72,0,4,1.19,6.28,4.86,8.27,21.14,11.5,42.1,23.34,63.16,35,5.85,3.24,8.37,8.4,9.11,14.68a56.26,56.26,0,0,1,.15,6.52q0,30.11,0,60.22Z"/><path class="cls-2" d="M1008.62,212q0,93.84,0,187.68a32.84,32.84,0,0,1-.65,6.94c-.55,2.53-2.22,3.86-5.07,3.83-8.86-.11-17.73,0-26.6-.06-4,0-5.63-1.4-6.53-5.48-1.48-6.68-2.82-13.4-4.23-20.1q-6.47-30.63-12.94-61.26-6.14-29.16-12.25-58.34c-2.27-10.78-4.6-21.56-6.87-32.34-2.41-11.44-4.74-22.89-7.19-34.31-.35-1.64-.12-3.68-2.14-4.58a33.85,33.85,0,0,0-.66,4.75q-.06,100.86,0,201.73c0,9.57-.39,10-9.79,10-7.53,0-15.05,0-22.58,0-5.47,0-6.89-1.23-7-6.75-.17-9.87-.07-19.74-.08-29.61q-.28-172.86-.54-345.71a61.28,61.28,0,0,1,.74-9.47c.64-4.09,1.9-5.1,6-5.13q12.8-.1,25.59,0c4,0,5.62,1.25,6.59,5.41,2,8.78,3.94,17.6,5.8,26.42q6.36,30.14,12.64,60.3,8.38,40,16.78,79.9,4.43,21.08,8.89,42.15a9.57,9.57,0,0,0,.31,1.47c.1.26.55.66.64.61.38-.19.91-.5,1-.83a17.34,17.34,0,0,0,.21-3c0-2.84,0-5.69,0-8.53q0-96.35,0-192.7a40.21,40.21,0,0,1,.79-7.42A4.33,4.33,0,0,1,974,13.72c9.7,0,19.4-.08,29.1,0,2.92,0,4.75,1.86,5.27,5.07a41.68,41.68,0,0,1,.24,6.51q0,93.34,0,186.67Z"/><path class="cls-2" d="M854.9,185.06c0,52.35.13,104.7-.09,157.06-.05,13.37-1.31,26.76-6.06,39.43a67.77,67.77,0,0,1-7.44,14.69c-6.61,9.57-16,14.29-27.8,14.19-10.87-.1-21.75-.27-32.61,0-16.13.47-26.94-7.29-34.06-21.1a69.29,69.29,0,0,1-7-23.42,220.59,220.59,0,0,1-2.06-26.43q-.22-156.55-.08-313.11a29.17,29.17,0,0,1,1-7.88c1-3.57,2.9-4.78,6.65-4.82,7.86-.06,15.72,0,23.58,0,5.31,0,7.86,2.22,8.63,7.63a43.39,43.39,0,0,1,.15,6q0,147.77,0,295.55a60.23,60.23,0,0,0,1.13,12.42c1.5,7.07,5.18,9.74,12.4,9.8,4.18,0,8.36,0,12.54,0,4.73.06,8.15-2.09,9.79-6.41a46.58,46.58,0,0,0,2.3-9.67,52,52,0,0,0,.1-7.52Q816,174.23,816,27c0-3.16-.19-6.32,1.36-9.32,1.38-2.66,3.2-4,6.3-4,7.86.11,15.72.13,23.58,0,3.38-.05,5.55,1.46,6.38,4.49a32,32,0,0,1,1.25,8.34q.11,79.28.05,158.56Z"/><path class="cls-2" d="M1576.89,130.2q0,54.44,0,108.89c0,7.86-.59,8.44-8.65,8.44-7.53,0-15.05,0-22.58,0-5.26,0-6.34-.83-8.09-5.71q-15.54-43.43-31.06-86.86c-3.89-10.85-7.83-21.69-11.75-32.53a18.88,18.88,0,0,0-.68-1.88c-.12-.25-.6-.59-.73-.52-.37.19-.86.54-.9.87a38.93,38.93,0,0,0-.15,4q0,55.95,0,111.9c0,1,0,2,0,3-.11,6.28-1.5,7.72-7.64,7.73-8.53,0-17.06.05-25.59,0-5.28,0-6.53-1.34-6.67-6.48,0-1,0-2,0-3q0-107.63,0-215.26c0-7.74.16-9.27,9-9.05,7.36.18,14.72,0,22.08,0,5.61,0,6.63.72,8.48,5.85q6.63,18.39,13.22,36.8,11.42,31.86,22.82,63.72c2.14,6,4.26,12,6.4,17.93a10.53,10.53,0,0,0,1,2.26,1.09,1.09,0,0,0,2-.56c.12-1.5.12-3,.12-4.51q0-55.7,0-111.39,0-1,0-2c0-7.56.53-8.09,7.87-8.1h14c3.85,0,7.7-.06,11.54,0,4.69.09,5.78,1.26,5.91,6.05,0,1.34,0,2.68,0,4Q1576.89,77,1576.89,130.2Z"/><path class="cls-2" d="M1306.62,130.67q0-38.38,0-76.77a47.56,47.56,0,0,1,3.18-18.14c4.89-12.13,14.22-18.68,26.74-20.88a90.13,90.13,0,0,1,14.45-1.1c11.2-.14,22.41-.17,33.61.05a43.38,43.38,0,0,1,22,6.05c7.74,4.68,12.21,11.74,14.6,20.21a64.83,64.83,0,0,1,2,17.86q-.11,73.5,0,147c0,8.13-1.23,16-4.8,23.34-4.56,9.41-12.3,14.77-22.17,17.27a65.78,65.78,0,0,1-17.38,1.95c-10.7-.18-21.41,0-32.11-.08a49.63,49.63,0,0,1-18.12-3.44c-14.2-5.69-20.3-17.09-21.81-31.56a78,78,0,0,1-.15-8Q1306.61,167.55,1306.62,130.67Zm59.63,55.15h-.14c0-3.68,0-7.36,0-11,0-2,1-2.25,2.6-1.63,3.38,1.33,6.71,2.82,10.15,4,3,1,6.07,1.76,9.12,2.57a14.66,14.66,0,0,0,2.28.25c-.19-.75-.14-1.75-.61-2.2-3.37-3.19-6.85-6.26-10.28-9.39a21.44,21.44,0,0,1-1.48-1.64,13.13,13.13,0,0,1,1.88-.5c4.26-.5,8.54-.91,12.79-1.44,8.09-1,14.84-6.73,23.25-6.64.26,0,.78-.39.75-.51-.09-.42-.29-1.08-.58-1.15-5.59-1.49-10.94-4.19-17-3.44q-6.93.86-13.86,1.7a8.36,8.36,0,0,1-1.38-.06,5.29,5.29,0,0,1,.83-1.21c3.45-2.85,6.9-5.72,10.41-8.49,5.25-4.15,8.3-9.74,10.66-15.82a27.59,27.59,0,0,1,1.17-2.61,32.64,32.64,0,0,1,8.79-10.76,7.05,7.05,0,0,0,1.23-2,7.53,7.53,0,0,0-2.63.34c-4.83,2.64-9.63,5.33-14.37,8.13-5.84,3.45-11.83,6.68-16.41,11.91-2.7,3.09-5.59,6-8.41,9a5.19,5.19,0,0,1-1.21.72,13.88,13.88,0,0,1-.67-1.64,2.28,2.28,0,0,1,.09-1c1.17-5.74,3.11-11.45,3.3-17.22a77.32,77.32,0,0,0-.63-15.3,149.58,149.58,0,0,0-4-18.14c-.93-3.17-2.19-6.25-3-9.45s-1.3-6.54-2.1-9.78a11,11,0,0,0-1.61-2.74,11.1,11.1,0,0,0-1.37,2.49c-.61,2.42-.92,4.92-1.56,7.33-1.83,6.87-3.8,13.72-5.67,20.58-1.4,5.14-3,10.26-2,15.71-1.87,2.32.12,4.64,0,6.9-.42,6.6,1.06,12.83,2.86,19,.42,1.44.87,2.87,1.22,4.33a4.42,4.42,0,0,1-.13,1.41,4.39,4.39,0,0,1-.72-.62c-2-2.63-3.59-5.67-6-7.82-5.65-5.07-11-10.48-18-14-5.64-2.85-11-6.33-16.43-9.52a14,14,0,0,0-2.22-1.15,3.78,3.78,0,0,0-1.41.06,4.07,4.07,0,0,0,2,3,28.35,28.35,0,0,1,9.76,14.15c1,3.07,3.41,5.37,4.33,8.63.56,2,3.22,3.44,5,5,2.76,2.39,5.63,4.64,8.41,7,1.32,1.13,2.54,2.38,3.81,3.57-1.78-.24-3.56-.45-5.33-.72-.49-.07-.95-.36-1.43-.44a45.58,45.58,0,0,0-25,2.7c-.4.16-.68.61-1,.93.48.34,1,1,1.44,1,4.05-.39,7.41,1.58,11,3a62.12,62.12,0,0,0,9.88,3.15c4.2.87,8.52,1.19,12.78,1.78,1.23.17,2.44.5,3.66.75-.87.74-1.76,1.46-2.6,2.23-3.05,2.8-6.12,5.58-9.1,8.46-.51.5-.6,1.44-.88,2.17a6.48,6.48,0,0,0,2.23.06c6.27-2.16,12.95-3.1,18.82-6.48,1.82-1,2.74-.33,2.76,1.91.05,5.68,0,11.37-.06,17.05a32.34,32.34,0,0,0,.08,4c.06.53.67,1,1,1.48.32-.48.92-1,.93-1.44C1366.29,192.84,1366.25,189.33,1366.25,185.82Z"/><path class="cls-2" d="M1096.26,13.75c7,0,14.06-.24,21.07.06a41.62,41.62,0,0,1,22.6,7.26c7.06,5,11.06,12,13,20.16a52.92,52.92,0,0,1,1.35,11.4c.18,10.87.11,21.74.07,32.61,0,5.23-.68,6-5.66,6q-14,.09-28.09,0c-4.59,0-5.6-1-5.68-5.62-.1-5.52,0-11,0-16.56,0-1,0-2,0-3-.16-10.28-3.69-13.81-14-13.92-3.51,0-7-.06-10.54,0-7.83.14-12.94,4.22-12.68,12.68.35,11.53.07,23.07.09,34.61,0,4.84,0,4.88,4.55,6.36q29.76,9.77,59.54,19.5c1.9.62,3.82,1.24,5.66,2,4.58,2,7,5.38,6.91,10.56-.12,8,0,16.05,0,24.08,0,15.22-.05,30.44,0,45.65a45.74,45.74,0,0,1-3.35,18.09c-4.53,10.8-12.62,17.36-24,20.08a68.43,68.43,0,0,1-16.89,1.8c-11-.13-22.08.1-33.11-.08a45.86,45.86,0,0,1-22.51-6c-7.51-4.33-12.08-11.09-14.51-19.11a58,58,0,0,1-2.23-14.78c-.33-10.19-.13-20.4-.1-30.6,0-5.89.91-6.82,6.6-6.85q13.55-.07,27.09,0c4.94,0,6.21,1.23,6.29,6.25.12,6.85.28,13.72,0,20.57-.32,7.29,4.31,12.11,11.68,11.71,4.84-.26,9.7,0,14.55-.09,6.16-.15,9.51-3.1,10.6-9.17a26,26,0,0,0,.35-4.48q0-15.55,0-31.1c0-5.33-.07-5.44-5.1-7.09q-29.74-9.78-59.49-19.53c-1.9-.63-3.82-1.24-5.67-2-4.64-1.94-7-5.33-6.92-10.52.13-10,0-20.07,0-30.1,0-13.38-.21-26.76.1-40.13a60,60,0,0,1,2.28-15.78c4-13.39,13.49-21.54,27.15-23.66,9.51-1.48,19.29-1.28,28.95-1.83Z"/><path class="cls-2" d="M1606.06,130.25q0-53.69,0-107.37c0-.67,0-1.34,0-2,.09-5.81,1.32-7.12,7.08-7.13q51.43,0,102.85,0a18.12,18.12,0,0,1,2.51.06c2.81.39,3.8,1.37,3.93,4.23s0,6,.05,9c0,6.52,0,13,0,19.57,0,4.64-.89,5.52-5.47,6-1.33.13-2.67.09-4,.09q-29.35,0-58.7,0c-2,0-4-.27-6-.31s-3.2.81-3.21,3c0,1,0,2,0,3q0,23.33,0,46.66c0,1.17,0,2.34.07,3.51a2.46,2.46,0,0,0,2.54,2.54c1.33.09,2.67.08,4,.08h45.16c1,0,2,0,3,0,4.16.17,5.41,1.31,5.51,5.4.12,4.51,0,9,0,13.55,0,4.68.08,9.37,0,14-.1,4.06-1.34,5.37-5.33,5.85a38.34,38.34,0,0,1-4.51.1h-44.15l-3.51,0c-1.83,0-2.79.87-2.78,2.74,0,1,0,2,0,3q0,23.58,0,47.16c0,1,0,2,0,3,0,1.92,1,2.69,2.82,2.68,1.17,0,2.34,0,3.51,0h62.72c1.34,0,2.68-.08,4,0,3,.27,4.14,1.38,4.29,4.44s0,6,.05,9c0,6.36,0,12.71,0,19.07,0,5.22-1,6.19-6.14,6.21-13.55,0-27.09,0-40.64,0H1615a38.21,38.21,0,0,1-4-.05,5,5,0,0,1-4.83-4.83,42.79,42.79,0,0,1-.06-4.51q0-53.94,0-107.87Z"/><path class="cls-2" d="M1250.41,149.06q0,44.65,0,89.31c0,1.34.07,2.68,0,4-.27,3.53-1.49,5-4.9,5.1q-15,.22-30.1,0c-3.14,0-4.5-1.58-4.83-4.69a46.8,46.8,0,0,1-.07-5q0-89.31,0-178.61c0-7.38.23-7.09-7.18-7.07-8.36,0-16.72,0-25.09,0-5.42,0-6-.62-6-6.14q-.07-13,0-26.09c0-5.06,1.13-6.15,6.3-6.15q51.93,0,103.86,0c5.44,0,6.37,1,6.39,6.51q.05,12.79,0,25.59c0,5.29-.91,6.2-6.13,6.23-9,.06-18.06,0-27.09,0-4.82,0-5.07.27-5.07,5.14Q1250.39,103.15,1250.41,149.06Z"/><path class="cls-1" d="M1441.21,335.89q0-33.37,0-66.74c0-1.17-.05-2.35,0-3.51.19-3.12.8-3.8,3.91-3.94,2.84-.13,5.69,0,8.53,0,8.36,0,16.73,0,25.09,0,5,0,5.78.58,7.2,5.17q9.89,32.06,19.77,64.13c2.12,6.86,4.32,13.69,6.48,20.53a6.86,6.86,0,0,0,.64,1.89,25.14,25.14,0,0,0,2.13,2.38,10.22,10.22,0,0,0,1.6-2.37q5.87-18.35,11.62-36.75,7-22.46,14-44.95c.55-1.75,1-3.52,1.55-5.28,1.16-4,1.92-4.71,5.88-4.73q17.06-.09,34.12,0c4.52,0,5.05.63,5.07,5.36,0,9.2,0,18.4,0,27.6q0,53.95,0,107.9c0,6.81-.7,7.54-7.37,7.58s-13.38.06-20.07,0c-5.17-.06-5.73-.64-5.73-5.8q0-37.89,0-75.78a24.5,24.5,0,0,0-.21-4.49,2.41,2.41,0,0,0-1.57-1.61,2.31,2.31,0,0,0-1.85,1.21c-1.17,3.13-2.2,6.31-3.18,9.5q-6.07,19.61-12.09,39.24c-3.28,10.7-6.69,21.35-9.66,32.13-1,3.76-3.23,5.28-6.65,5.46-4,.21-8,.21-12,.08-3.11-.1-5.13-1.53-6.07-4.86-2.3-8.2-5-16.29-7.46-24.43q-5.71-18.66-11.39-37.34-2.55-8.38-5.07-16.78c-.1-.32-.06-.72-.25-1-.85-1.12-1.93-3.22-2.61-3.1-1.92.32-1.23,2.38-1.24,3.76q-.05,37.89,0,75.78c0,7.42-.55,8-7.94,8-6.19,0-12.38,0-18.57,0s-6.58-.34-6.58-6.47Q1441.2,369.77,1441.21,335.89Z"/><path class="cls-1" d="M1306.81,335.73q0-33.36,0-66.73c0-1.17-.05-2.35,0-3.51.2-3.09.76-3.61,4-3.83.67,0,1.34,0,2,0,22.24,0,44.49,0,66.73.06A47.26,47.26,0,0,1,1399,265.5c8.78,3.95,13.87,10.53,14,20.1q.45,25.08,0,50.17c-.18,9.56-5.32,16.26-14.06,20.16-.3.14-.65.19-1,.32-4.06,1.79-4,1.78-2.54,5.81q7.94,21.36,15.84,42.74c1.49,4,.77,5.25-3.49,5.3q-12.29.13-24.58,0c-3.94,0-4.88-.83-6-4q-6.71-18.33-13.49-36.64c-.81-2.19-1.58-4.4-2.37-6.6a4,4,0,0,0-4.19-2.86c-4,.07-8-.06-12,0-3.5.08-4.11.65-4.17,4.13-.1,5.85,0,11.71,0,17.56,0,7.86,0,15.72,0,23.58,0,3.93-.72,4.73-4.67,4.79q-12.29.18-24.58,0c-4.2-.06-4.84-.81-4.84-5.12Q1306.78,370.35,1306.81,335.73Zm34.14-25.57c0,7.18-.06,14.36,0,21.53,0,3.63.65,4.35,3.9,4.38,8.35.08,16.7.15,25-.06,5.57-.14,8.94-3.35,9-8.67.17-11.35.14-22.7,0-34.05-.05-4.11-2.43-6.65-6.56-7.66a24.34,24.34,0,0,0-5.4-.83c-7-.1-14-.08-21,0-4.41,0-4.94.54-5,4.85C1340.9,296.48,1340.94,303.32,1340.95,310.17Z"/><path class="cls-1" d="M1668.28,261.69c6.86,0,13.72-.14,20.57,0a45.31,45.31,0,0,1,17.45,3.95c9.34,4.18,13.31,11.8,13.85,21.48.33,5.84.14,11.7.05,17.56-.07,4.51-.74,5.12-5.36,5.14q-12.29.06-24.58,0c-4.41,0-4.83-.49-4.89-4.92-.05-3.68,0-7.36,0-11-.11-5.39-1.4-7-6.69-8.45a16.2,16.2,0,0,0-3.93-.64c-4.35-.08-8.7-.14-13,0-7.38.23-10.18,2.32-10.85,9.55-.63,6.77-.2,13.64-.28,20.47,0,3.71,2.11,5.24,5.44,5.93,6.36,1.33,12.7,2.76,19,4.24q18.74,4.38,37.46,8.88c6.32,1.52,7.73,3.3,7.75,9.68,0,12.71.05,25.42,0,38.13-.07,15.45-7.32,22.79-20.53,26.33-5.56,1.49-11.52,1.83-17.32,2-9.52.32-19.07.39-28.59,0-7.61-.32-15.33-.47-22.53-3.79-5.17-2.38-9.49-5.62-12.23-10.65a14.23,14.23,0,0,1-1.92-5.62c-.49-7.82-.77-15.66-.93-23.5-.08-3.71,1-4.8,4.62-5.13,2-.18,4-.06,6-.06,5.85,0,11.71,0,17.56,0a16.87,16.87,0,0,1,4.4.69c1.43.41,1.88,1.46,1.86,3.08-.06,4.48,0,9,.35,13.44.37,4.67,3.08,7.47,7.63,7.65,6.34.25,12.71.26,19.06,0,4.81-.19,7.6-3.3,7.66-8.09.09-7,.08-14,0-21.07,0-3.73-.29-4-4.17-5-6.8-1.68-13.62-3.27-20.43-4.89-12.65-3-25.31-6-38-9-4.84-1.17-6.61-3.43-6.65-8.53-.07-10.87-.11-21.74,0-32.61a134.65,134.65,0,0,1,.9-15,18.67,18.67,0,0,1,7.61-13.06c6.69-5,14.42-6.88,22.54-7.19,7-.26,14-.06,21.07-.06Z"/><path class="cls-1" d="M1216.2,261.64c5.68,0,11.37,0,17.05,0,4.26,0,4.93.57,6.08,4.4L1261,337.93q9.54,31.64,19.07,63.28.65,2.15,1.15,4.35c.83,3.6.2,4.38-3.67,4.56-1.17.06-2.34,0-3.51,0-6.85,0-13.71,0-20.56,0-5,0-5.39-.23-6.74-4.89-1.9-6.57-3.58-13.2-5.33-19.81-1.35-5.1-1.54-5.3-6.77-5.31q-18.56,0-37.12,0c-4.82,0-5.15.35-6.41,5.12-1.84,6.93-3.68,13.87-5.6,20.78-1,3.48-1.45,4-4.62,4.07-8.86.11-17.72.15-26.58,0-3.71-.07-4.1-1-3-4.79q13.56-45.06,27.12-90.12,7.21-23.91,14.53-47.78c1.72-5.63,1.86-5.72,7.63-5.74C1205.84,261.62,1211,261.63,1216.2,261.64Zm-.15,97.58v0c3.84,0,7.69,0,11.53,0,7.23,0,5.89-.39,4.44-6.12-4.33-17.13-8.84-34.21-13.33-51.3-.58-2.19-1.41-4.32-2.13-6.47-2.77,1.49-2.5,4.42-3.15,6.85-3,11.11-5.83,22.24-8.69,33.37q-2.55,9.92-5,19.88c-.72,3-.23,3.66,2.77,3.73C1207,359.3,1211.54,359.21,1216.06,359.21Z"/><path class="cls-1" d="M1047.91,335.16q0-33.11,0-66.23c0-1.34,0-2.68,0-4a3.39,3.39,0,0,1,2.91-3.56,22.61,22.61,0,0,1,5-.44q44.15,0,88.3,0a28,28,0,0,1,3.51.08c3.29.42,4.38,1.53,4.44,4.84.09,5,.1,10,0,15.05-.07,3.18-.69,3.7-3.89,3.9-1.17.07-2.34,0-3.51,0H1090c-1.17,0-2.35-.06-3.51,0-2.85.23-3.36.78-3.59,3.71-.06.83,0,1.67,0,2.51q0,13.3,0,26.59c0,6.18.06,6.25,6.08,6.26q19.57,0,39.13,0c8.71,0,8.1-.13,8.08,8.32,0,3.34,0,6.69,0,10-.08,4.35-.49,4.78-5,4.8-13.71,0-27.43,0-41.14,0-1.34,0-2.68,0-4,0a2.86,2.86,0,0,0-3.09,3.16c0,1.34,0,2.68,0,4q0,24.33,0,48.67c0,1.17,0,2.34,0,3.51.09,2.33-1.27,3.32-3.33,3.58a28.92,28.92,0,0,1-3.51.11h-20.07c-7.82,0-8-.16-8-7.76q0-33.62,0-67.23Z"/></g></g></svg>